<svg width="404" height="627" viewBox="0 0 404 627" fill="none" xmlns="http://www.w3.org/2000/svg">
<path d="M342.031 549C344.031 539.5 349.531 505.5 352.031 486C361.531 481 375.031 474.5 378.031 471C381.031 467.5 390.531 443.5 391.531 418C392.531 392.5 385.5 374 382 370.5C378.5 367 369 355.5 355.031 346.5C357.5 342.5 366.531 341 367.031 335.5C367.531 330 368.531 325.5 364.531 308C360.531 290.5 357.5 273 354.031 264.5C373.5 252.5 397.246 218.79 401 214.5C404.5 210.5 404 203 400.5 195C397 187 370.969 154.5 350 147.5C351.469 114 353.031 54.5 351.531 48C350.031 41.5 344.031 38 338.031 37.5C332.031 37 300.031 40 281.031 45.5C265.831 49.9 252.031 55 228.531 65C197.031 34.5 152.531 3 147.531 2C142.531 1 141.031 -2 134.531 5C128.031 12 106.031 54 102.031 67.5C98.8312 78.3 96.6979 91.3333 96.0312 96.5C74.0312 95 58.5312 99.5 45.0312 102.5C31.5312 105.5 9.49997 119.5 5.99997 123.5C2.49997 127.5 -1.50003 137 2.49997 143C6.49997 149 28.0312 179.5 37.0312 190C44.2312 198.4 53.0312 208.167 56.5312 212C50.1979 223.333 36.7312 248.1 33.5312 256.5C29.5312 267 23.5 287 23.5 292C23.5 297 22.5312 304.5 33.5312 306C44.5312 307.5 83.0312 310 95.5312 309.5C105.531 309.1 109.031 309.5 111.531 308C111.198 310.833 110.631 317.5 111.031 321.5C111.431 325.5 112.198 331.833 112.531 334.5C102.198 341.5 79.8312 356.7 73.0312 361.5C64.5312 367.5 47.0312 382.5 45.0312 385.5C43.0312 388.5 40.5312 394 40.5312 400.5C40.5312 407 37.5312 444 40.5312 451C43.5312 458 49.5156 470.484 57.5312 478.5C65.5312 486.5 66.5312 487.5 77.5312 493.5C80.0312 508.5 89.0312 558 116.031 586.5C143.031 615 185.031 627 225.031 627C265.031 627 293.531 614 311.531 598.5C329.531 583 340.031 558.5 342.031 549Z" fill="black"/>
<path d="M241.031 347C243.031 350.5 245.865 350.833 246.031 355.5V386.5C246.031 389.5 227.531 406.5 215.531 411C203.531 415.5 204.031 404 204.531 401C205.083 397.692 205.531 377 204.531 363C204.424 361.504 224.427 345.42 229.031 339.5C236.031 330.5 239.142 343.694 241.031 347Z" fill="white"/>
<path d="M212.031 435C229.531 435.5 245.531 435.5 296.031 428.5C321.031 425.259 337.531 413 338.531 403.5C339.531 394 328.031 385 320.031 378C312.031 371 277.531 355.5 273.031 354C268.531 352.5 271.031 350 271.031 349C271.031 348 273.531 346.5 281.531 347.5C289.531 348.5 300.031 352.5 320.031 361C340.031 369.5 351.531 382 356.531 387.5C361.531 393 370.031 414.5 367.531 428.5C365.031 442.5 363.031 445.5 360.531 451.5C358.031 457.5 336.935 467.096 335.031 469C332.531 471.5 331.031 473.5 329.531 477.5C327.875 481.917 322.531 530.5 320.531 542.5C318.531 554.5 303.531 585 293.531 592C283.531 599 276.031 605.5 225.531 610C175.031 614.5 131.531 577.5 128.031 571C124.531 564.5 121.531 557.5 120.531 553C119.531 548.5 114.031 523 114.031 514.5C114.031 506.594 113.031 489 109.031 482.5C105.031 476 102.77 479.863 93.5313 475C84.0312 470 78.2423 459.886 75.5312 448.5C73.0312 438 70.0312 408 71.0313 405C71.8245 402.621 83.1552 391.857 93.044 382.463L93.5313 382C103.531 372.5 123.531 362.5 125.031 362.5C126.531 362.5 130.531 370 130.031 372.5C129.531 375 105.031 384 104.531 405C104.131 421.8 144.365 428.667 164.531 430C177.031 437.5 194.531 434.5 212.031 435Z" fill="white"/>
<path d="M198.531 491.5C213.031 494 228.031 494.5 245.031 495C248.365 494.5 256.131 493.1 260.531 491.5C266.031 489.5 286.531 484 291.031 482.5C295.531 481 302.031 479.5 303.531 485.5C305.031 491.5 300.031 495 293.531 498.5C287.031 502 258.031 512.5 248.531 514.5C239.031 516.5 201.531 515 191.531 512.5C181.531 510 174.531 509.5 176.531 498.5C178.531 487.5 184.031 489 198.531 491.5Z" fill="black" stroke="black" stroke-linecap="round" stroke-linejoin="round"/>
<path d="M191.012 344.5C209.47 333.751 221.481 307 243.512 307C245.512 307 250.712 307.5 255.512 309.5C261.512 312 269.512 317 288.512 325C307.512 333 327.062 332.642 334 326C339.969 320.286 343.929 308.5 341.981 299C339.387 286.357 336.117 279.5 332.481 271.5C322.481 249.5 335.355 243.91 341.981 239C357.5 227.5 379.5 211.5 381 206.5C382.5 201.5 372.981 191.5 365.481 183.5C357.981 175.5 341.981 165 333.981 161C331.26 159.64 322.481 154.5 322.481 151C322.481 148.5 332.512 67 328.012 62.5C323.512 58 289.012 68 276.512 71.5C264.946 74.7384 234 89 229 90C224 91 216.5 80.5 198.512 65C181.084 49.9827 159 29 150.512 31C142.185 32.9621 129.512 67 127.012 76C124.512 85 120.5 112 117.5 118C114.5 124 86 122 78 123C70 124 33 126.383 33 138C33 148 44.0117 158.5 54.5117 171.5C65.0117 184.5 89.4805 201.5 90.5117 209C91.3368 215 78.4805 230.5 69.9805 241C61.4805 251.5 50.9805 277.5 54.5117 282.5C58.1546 287.658 58.4805 283.5 85.9805 286C113.48 288.5 122 281 129.5 280.5C137 280 139.5 284.5 140.5 287C141.5 289.5 141.012 290 140.512 302.5C140.012 315 135.512 346.5 147.012 353C158.512 359.5 172.981 355 191.012 344.5Z" fill="white"/>
<path d="M199.031 123C226.631 117.8 236.531 132.5 245.031 143C255.531 155.5 269.531 175.5 272.531 188C283.575 234.014 262.531 263.5 240.531 270C218.531 276.5 190.531 256.5 172.531 227C154.531 197.5 164.531 129.5 199.031 123Z" fill="black"/>
<path d="M247.12 182.55C264.077 215.9 250.717 236.805 234.788 243.276C223.997 245.765 213.206 242.28 201.388 225.855C189.569 209.429 187 178.071 187 167.12C187 156.17 197.791 146.712 208.068 145.219C218.345 143.726 230.163 149.201 247.12 182.55Z" fill="white"/>
</svg>
