<svg width="1523" height="275" viewBox="0 0 1523 275" fill="none" xmlns="http://www.w3.org/2000/svg">
<path d="M177.472 189.464V106.808H104.896V133.592H147.232V173.912C136.288 177.368 124.48 179.672 113.536 179.672C62.272 179.672 32.608 145.112 32.608 104.504C32.608 63.896 65.44 31.928 111.808 31.928C129.376 31.928 157.6 39.128 172.576 50.648V18.104C163.36 13.496 140.608 4.568 111.232 4.568C39.52 4.568 0.64 55.832 0.64 104.504C0.64 153.176 36.64 207.032 112.096 207.032C139.168 207.032 165.952 199.256 177.472 189.464ZM325.754 205.592H329.498L387.098 68.216H358.298L326.618 148.856L293.21 68.216H287.45L253.754 148.568L222.074 68.216H192.986L250.586 205.592H254.618L290.33 125.528L325.754 205.592ZM410.023 0.823994C399.943 0.823994 391.591 9.17599 391.591 19.544C391.591 29.912 399.943 37.976 410.023 37.976C420.679 37.976 428.743 29.912 428.743 19.544C428.743 9.17599 420.679 0.823994 410.023 0.823994ZM396.199 68.216V203H423.847V68.216H396.199ZM451.605 3.41599V203H479.253V3.41599H451.605ZM511.62 94.136C537.54 82.616 554.532 60.152 554.532 35.96C554.532 20.12 544.74 3.41599 528.324 3.41599C516.804 3.41599 509.028 11.48 509.028 22.424C509.028 34.808 515.94 42.872 528.9 44.888C527.172 56.12 520.26 64.184 511.62 68.504V94.136ZM574.109 191.48C581.309 198.392 599.453 207.032 619.325 207.032C647.261 207.032 669.149 194.36 669.149 165.56C669.149 120.632 602.621 127.544 602.621 101.336C602.621 92.984 608.957 88.088 620.765 88.088C634.877 88.088 647.261 92.408 660.797 103.928V75.416C652.157 69.08 637.181 64.184 623.645 64.184C595.709 64.184 575.549 80.024 575.549 104.216C575.549 149.144 641.501 141.944 641.501 168.44C641.501 178.52 630.557 183.416 620.765 183.416C602.621 183.416 584.765 174.2 574.109 162.68V191.48ZM797.331 139.352C782.067 139.352 770.259 128.12 770.259 113.432C770.259 98.456 782.067 86.936 797.331 86.936C812.883 86.936 824.691 98.456 824.691 113.432C824.691 128.12 812.883 139.352 797.331 139.352ZM871.923 225.464C871.923 198.104 851.475 183.416 805.107 183.416C782.355 183.416 778.323 179.96 778.323 174.776C778.323 165.272 797.907 164.984 817.203 158.36C840.819 150.296 853.203 137.048 853.203 114.008C853.203 105.944 851.475 98.168 847.731 91.256L870.483 92.408V65.624L816.339 66.488C810.867 65.048 804.819 64.184 798.195 64.184C765.651 64.184 741.747 80.024 741.747 112.568C741.747 136.76 760.179 152.024 777.171 156.056V157.208C763.059 159.512 746.643 165.272 746.643 180.248C746.643 190.616 752.115 198.968 763.347 204.152C749.811 206.744 729.075 216.536 729.075 234.392C729.075 256.856 751.251 274.424 794.163 274.424C845.139 274.424 871.923 255.416 871.923 225.464ZM799.059 250.232C771.123 250.232 761.043 240.44 761.043 230.36C761.043 220.568 771.411 210.2 799.635 210.2C834.195 210.2 843.699 220.568 843.699 230.648C843.699 241.304 826.995 250.232 799.059 250.232ZM983.253 208.472L1001.97 189.752C992.469 183.416 986.421 176.792 986.421 166.424V119.192C986.421 82.616 968.277 64.184 931.989 64.184C914.133 64.184 895.701 70.232 883.317 80.024V108.536C900.885 94.712 916.149 89.528 927.957 89.528C947.829 89.528 958.485 99.032 958.485 114.584V119.192L926.805 126.392C899.733 132.44 876.405 143.672 876.405 169.016C876.405 192.344 893.397 207.032 921.621 207.032C937.749 207.032 953.301 201.272 963.381 188.888C968.277 196.952 976.629 204.152 983.253 208.472ZM904.917 168.728C904.917 156.344 914.421 150.872 929.397 147.416L958.485 140.504V158.36C958.485 173.912 940.629 185.432 924.789 185.432C912.405 185.432 904.917 178.232 904.917 168.728ZM1043.44 203V116.6C1050.93 102.488 1065.04 94.712 1078.86 94.712H1088.66V64.76C1087.22 64.472 1085.2 64.184 1083.47 64.184C1067.34 64.184 1053.23 74.264 1043.44 87.512V68.216H1015.79V203H1043.44ZM1204.93 109.976V158.648C1199.74 171.896 1184.19 181.976 1168.93 181.976C1144.45 181.976 1126.01 161.816 1126.01 134.744C1126.01 108.824 1144.45 89.528 1168.93 89.528C1182.46 89.528 1197.73 98.168 1204.93 109.976ZM1204.93 203H1232.57V3.41599H1204.93V78.296C1196 69.656 1182.17 64.184 1168.64 64.184C1126.88 64.184 1095.49 94.424 1095.49 134.744C1095.49 175.928 1124.86 207.032 1163.74 207.032C1178.72 207.032 1194.85 201.272 1204.93 193.208V203ZM1319.82 89.528C1339.4 89.528 1351.5 103.928 1351.78 121.496H1282.95C1288.14 100.472 1303.11 89.528 1319.82 89.528ZM1381.45 191.48V164.696C1368.49 174.2 1349.48 181.112 1329.03 181.112C1307.72 181.112 1285.26 172.184 1281.51 143.384H1380.3V137.912C1380.3 104.504 1365.61 64.184 1320.39 64.184C1284.39 64.184 1252.42 92.984 1252.42 137.336C1252.42 179.672 1284.68 207.032 1326.15 207.032C1355.24 207.032 1372.23 197.24 1381.45 191.48ZM1465.58 89.816C1484.3 89.816 1494.67 101.624 1494.67 125.528V203H1522.61V118.904C1522.61 83.48 1506.77 64.184 1473.07 64.184C1457.23 64.184 1441.39 71.672 1430.16 83.192V68.216H1402.51V203H1430.16V109.4C1436.78 97.304 1449.46 89.816 1465.58 89.816Z" fill="black"/>
</svg>
